The Debt 2011 Cam MP4 CrEwSaDe

General
Complete name                    : The Debt 2010 MP4 CrEwSaDe.mp4
Format                           : MPEG-4
Format profile                   : Base Media / Version 2
Codec ID                         : mp42
File size                        : 684 MiB
Duration                         : 1h 46mn
Overall bit rate                 : 895 Kbps
Writing application              : TMPGEnc Video Mastering Works 5 
Version. 5.0.5.32

Video
ID                               : 2
Format                           : AVC
Format/Info                      : Advanced Video Codec
Format profile                   : High@L3.0
Format settings, CABAC           : Yes
Format settings, ReFrames        : 3 frames
Codec ID                         : avc1
Codec ID/Info                    : Advanced Video Coding
Duration                         : 1h 46mn
Bit rate mode                    : Constant
Bit rate                         : 851 Kbps / 851 Kbps
Width                            : 720 pixels
Height                           : 320 pixels
Display aspect ratio             : 2.25:1
Frame rate mode                  : Constant
Frame rate                       : 25.000 fps
Standard                         : NTSC
Color space                      : YUV
Chroma subsampling               : 4:2:0
Bit depth                        : 8 bits
Scan type                        : Progressive
Bits/(Pixel*Frame)               : 0.148
Stream size                      : 633 MiB (92%)
Writing library                  : x264 core 112

Audio
ID                               : 1
Format                           : AAC
Format/Info                      : Advanced Audio Codec
Format profile                   : LC
Codec ID                         : 40
Duration                         : 1h 46mn
Bit rate mode                    : Variable
Bit rate                         : 63.9 Kbps
Maximum bit rate                 : 265 Kbps
Channel(s)                       : 1 channel
Channel positions                : Front: C
Sampling rate                    : 44.1 KHz
Compression mode                 : Lossy
Stream size                      : 48.8 MiB (7%)


SOURCES:
VIDEO:The Debt 2010  XViD - MEM   
AUDIO:The Debt 2010  XViD - MEM

Plot: The espionage thriller begins in 1997, as shocking news 
reaches retired Mossad secret agents Rachel (Helen Mirren) and 
Stefan (Tom Wilkinson) about their former colleague David (Ciarán 
Hinds). All three have been venerated for decades by their country 
because of the mission that they undertook back in 1966, when the 
trio (portrayed, respectively, by Jessica Chastain, Marton Csokas, 
and Sam Worthington) tracked down Nazi war criminal Vogel (Jesper 
Christensen) in East Berlin. At great risk, and at considerable 
personal cost, the team's mission was accomplished - or was it? The 
suspense builds in and across two different time periods, with 
startling action and surprising revelations

IMDB: www.imdb.com/title/tt1226753/       
Youtube Trailer:
Sample Included Yes

Notes:Well first I cut it up into 72 pieces and synched each one 
now as far as cutting the scenes right I think there might be a 
sec or two that's cut but it's only a scene I didn't get right at 
the very beginning and its no big factor but it is in sync. 
I watched it with vlc and it was fine!I did enough to it. I didn't 
bother fixing it up maybe when a better version comes out I will 
but this is good enough for now. So if there's any complaints do 
it yourself!

Screens - copy and paste URL in browser to view
 
http://img153.imageshack.us/img153/3880/vlcsnap2011092209h07m18.png 
http://img842.imageshack.us/img842/9569/vlcsnap2011092209h58m12.png 
http://img819.imageshack.us/img819/8702/vlcsnap2011092209h58m43.png 
http://img641.imageshack.us/img641/3918/vlcsnap2011092210h06m54.png 
http://img64.imageshack.us/img64/484/vlcsnap2011092210h09m06.png
